<?xml version="1.0" encoding="iso-8859-1"?>
<!-- Generator: Adobe Illustrator 19.0.0, SVG Export Plug-In . SVG Version: 6.00 Build 0)  -->
<svg version="1.1" id="Capa_1" xmlns="http://www.w3.org/2000/svg" xmlns:xlink="http://www.w3.org/1999/xlink" x="0px" y="0px"
	 viewBox="0 0 512 512" style="enable-background:new 0 0 512 512;" xml:space="preserve">
<path style="fill:#DDAF89;" d="M112.992,488.504l-53.724-285.71c-0.672-3.573-0.338-7.261,0.964-10.655l54.501-142.026
	c2.91-7.585,10.194-12.591,18.319-12.591h154.513c8.124,0,15.408,5.007,18.319,12.591l54.5,142.026
	c1.302,3.394,1.636,7.082,0.965,10.655l-53.722,285.71c-1.744,9.275-9.845,15.995-19.284,15.995H132.276
	C122.838,504.499,114.736,497.779,112.992,488.504z"/>
<path style="fill:#A28577;" d="M135.898,461.013L87.824,205.345c-0.668-3.55-0.336-7.216,0.958-10.588l44.946-117.132
	c2.892-7.537,10.13-12.512,18.204-12.512h116.752c8.073,0,15.311,4.975,18.204,12.512l44.947,117.132
	c1.294,3.372,1.626,7.038,0.958,10.588L284.72,461.013c-1.733,9.217-9.783,15.894-19.162,15.894H155.06
	C145.68,476.909,137.631,470.23,135.898,461.013z"/>
<path style="opacity:0.2;enable-background:new    ;" d="M112.992,488.504l-53.724-285.71c-0.672-3.573-0.338-7.261,0.964-10.655
	l54.501-142.026c2.91-7.585,10.194-12.591,18.319-12.591h154.513c8.124,0,15.408,5.007,18.319,12.591l54.5,142.026
	c1.302,3.394,1.636,7.082,0.965,10.655l-53.722,285.71c-1.744,9.275-9.845,15.995-19.284,15.995H132.276
	C122.838,504.499,114.736,497.779,112.992,488.504z"/>
<path style="fill:#FFF0C0;" d="M218.732,265.015c27.059-38.619,20.967-140.546-26.716-187.766
	c-17.833-19.391-45.762-31.879-77.165-31.879c-53.849,0-97.502,36.714-97.502,82.004c0,31.155,20.658,58.252,51.08,72.13
	c42.334,21.145,80.514,16.559,91.032,56.756c7.256,27.729,0.357,64.482,51.105,92.548c5.134,2.839,10.824-2.683,8.086-7.871
	C208.694,322.067,199.861,291.949,218.732,265.015z"/>
<g>
	<ellipse style="fill:#F2937E;" cx="59.652" cy="133.314" rx="20.031" ry="15.954"/>
	<ellipse style="fill:#F2937E;" cx="168.245" cy="133.314" rx="20.031" ry="15.954"/>
</g>
<ellipse style="fill:#495059;" cx="113.943" cy="121.053" rx="17.332" ry="20.467"/>
<path style="opacity:0.1;enable-background:new    ;" d="M210.568,348.807c5.134,2.839,10.824-2.683,8.085-7.871
	c-9.959-18.869-18.793-48.986,0.079-75.921c24.158-34.478,21.888-119.411-12.804-170.831l-24.408,33.602
	c-2.136,2.941-3.414,6.418-3.689,10.042l-11.803,155.141C170.505,312.165,180.244,332.036,210.568,348.807z"/>
<path style="fill:#DDAF89;" d="M178.876,438.58l22.055-289.88c0.276-3.624,1.553-7.101,3.689-10.042l89.402-123.081
	c4.774-6.573,13.106-9.524,20.954-7.421l149.247,39.991c7.847,2.103,13.587,8.824,14.435,16.903l15.883,151.292
	c0.379,3.615-0.253,7.265-1.826,10.542l-125.838,262.07c-4.085,8.508-13.649,12.902-22.766,10.459L193.363,459.02
	C184.246,456.578,178.16,447.991,178.876,438.58z"/>
<path style="opacity:0.1;enable-background:new    ;" d="M452.593,186.714l-10.118-96.38c-0.522-4.975-4.057-9.114-8.889-10.409
	L325.621,50.996c-4.832-1.295-9.963,0.522-12.903,4.57l-56.953,78.408c-1.369,1.884-0.423,4.555,1.827,5.158l190.842,51.136
	C450.682,190.871,452.836,189.03,452.593,186.714z"/>
<path style="opacity:0.1;enable-background:new    ;" d="M236.207,194.219l-16.858,221.576c-0.441,5.795,3.307,11.083,8.921,12.587
	l100.93,27.044c5.614,1.504,11.504-1.202,14.019-6.441l96.189-200.32c1.647-3.43-0.229-7.513-3.904-8.498l-191.666-51.357
	C240.162,187.826,236.496,190.424,236.207,194.219z"/>
<g style="opacity:0.1;">
	<rect x="329.37" y="55.835" transform="matrix(-0.9659 -0.2589 0.2589 -0.9659 634.4991 297.9731)" width="15" height="102.743"/>
	
		<rect x="388.233" y="71.603" transform="matrix(-0.9659 -0.2589 0.2589 -0.9659 746.1337 344.212)" width="14.999" height="102.743"/>
</g>
<g style="opacity:0.1;">
	<rect x="272.274" y="202.579" transform="matrix(-0.9659 -0.2588 0.2588 -0.9659 467.1205 702.0819)" width="15" height="235.43"/>
	<rect x="331.113" y="218.375" transform="matrix(-0.9659 -0.2589 0.2589 -0.9659 578.6663 748.394)" width="15" height="235.436"/>
</g>
<path style="opacity:0.1;enable-background:new    ;" d="M295.368,13.94c-0.471,0.52-0.926,1.058-1.345,1.635l-89.402,123.081
	c-2.136,2.941-3.414,6.418-3.689,10.042l-22.055,289.88c-0.716,9.411,5.369,17.999,14.486,20.441l150.749,40.393
	c9.116,2.443,18.681-1.951,22.766-10.459l22.017-45.852C199.986,457.303,256.867,106.402,295.368,13.94z"/>
<path d="M164.892,121.974c4.142,0,7.5-3.357,7.5-7.5v-8.599c0-4.143-3.358-7.5-7.5-7.5s-7.5,3.357-7.5,7.5v8.599
	C157.392,118.617,160.75,121.974,164.892,121.974z M62.996,98.375c-4.142,0-7.5,3.357-7.5,7.5v8.599c0,4.143,3.358,7.5,7.5,7.5
	c4.142,0,7.5-3.357,7.5-7.5v-8.599C70.496,101.733,67.138,98.375,62.996,98.375z M502.002,215.558L486.119,64.266
	c-1.165-11.09-9.184-20.48-19.954-23.365L316.917,0.911c-10.77-2.886-22.41,1.236-28.964,10.258l-13.692,18.852H133.052
	c-7.146,0-14.015,2.888-19.055,7.859C56.492,38.272,9.849,78.264,9.849,127.373c0,28.348,15.606,54.603,41.585,71.363
	c-0.03,1.817,0.124,3.635,0.464,5.443l53.724,285.71c2.409,12.812,13.618,22.11,26.654,22.11h156.068
	c9.864,0,18.664-5.294,23.416-13.49l30.414,8.149c2.333,0.626,4.688,0.926,7.013,0.926c10.222,0,19.859-5.81,24.455-15.384
	L499.48,230.129C501.654,225.598,502.527,220.56,502.002,215.558z M263.365,45.02l-9.145,12.591h-73.497
	c-7.504-5.168-15.769-9.392-24.572-12.591H263.365z M243.323,72.612l-22.838,31.441c-6.372-12.233-13.912-22.772-22.511-31.441
	H243.323z M63.077,188.288c-23.796-13.885-38.227-36.543-38.227-60.915c0-41.081,40.375-74.503,90.002-74.503
	c0.828,0,1.653,0.011,2.477,0.029c0.004,0,0.008,0.001,0.012,0.001c0.004,0,0.008-0.001,0.011-0.001
	c20.933,0.469,40.537,6.821,56.077,17.921c0.293,0.249,0.607,0.473,0.936,0.676c4.402,3.233,8.469,6.849,12.131,10.83
	c0.079,0.086,0.16,0.17,0.243,0.252c9.312,9.222,17.294,21.059,23.769,35.213l-11.955,16.458c-2.955,4.068-4.718,8.868-5.1,13.881
	l-12.439,163.494c-7.044-12.452-8.943-25.452-10.793-38.142c-0.971-6.66-1.888-12.952-3.502-19.121
	c-2.728-10.428-7.278-18.774-13.911-25.513c-2.905-2.952-7.654-2.991-10.606-0.085c-2.952,2.905-2.99,7.654-0.085,10.606
	c4.743,4.819,8.043,10.965,10.089,18.788c1.403,5.361,2.262,11.251,3.171,17.488c2.693,18.472,5.74,39.302,23.904,58.753
	l-7.883,103.611c0,0,0,0,0,0.001c-0.988,12.997,7.433,24.881,20.024,28.254l11.732,3.144h-48.094c-5.766,0-10.725-4.113-11.79-9.78
	L98.062,219.21c1.999,0.649,3.966,1.277,5.887,1.89c3.614,1.153,7.027,2.243,10.328,3.364c0.8,0.271,1.613,0.4,2.413,0.4
	c3.124,0,6.04-1.967,7.101-5.09c1.332-3.922-0.767-8.181-4.689-9.514c-3.432-1.166-6.91-2.275-10.593-3.451
	c-11.799-3.765-24-7.658-36.728-14.016c-0.079-0.039-0.158-0.077-0.238-0.113c-2.849-1.299-5.586-2.72-8.214-4.243
	C63.245,188.387,63.162,188.336,63.077,188.288z M288.343,496.999H132.276c-5.826,0-10.835-4.155-11.912-9.881l-52.571-279.58
	c4.72,2.252,9.378,4.206,13.931,5.957l46.801,248.904c2.398,12.753,13.556,22.01,26.533,22.01h104.076l36.843,9.872
	C293.879,495.991,291.212,496.999,288.343,496.999z M485.955,223.636L360.118,485.708c-2.522,5.251-8.435,7.97-14.064,6.462
	l-150.749-40.394c-5.627-1.508-9.39-6.818-8.948-12.628v0.001l22.055-289.88c0.17-2.241,0.958-4.387,2.279-6.205l89.402-123.081
	c2.928-4.031,8.129-5.875,12.943-4.584l149.247,39.99c4.813,1.29,8.397,5.486,8.918,10.442l15.883,151.291
	C487.318,219.359,486.927,221.611,485.955,223.636z M449.934,89.551c-0.841-8.007-6.63-14.786-14.406-16.87l-107.966-28.93
	c-7.777-2.086-16.181,0.892-20.914,7.407l-56.952,78.407c-2.095,2.884-2.636,6.611-1.446,9.971c1.19,3.36,3.956,5.917,7.399,6.839
	l190.842,51.137c0.925,0.247,1.865,0.368,2.8,0.368c2.547,0,5.045-0.899,7.027-2.593c2.71-2.314,4.105-5.813,3.733-9.357
	L449.934,89.551z M265.407,133.462l53.379-73.487c1.107-1.525,3.076-2.22,4.894-1.734l107.966,28.93
	c1.819,0.488,3.175,2.074,3.371,3.948l9.483,90.332L265.407,133.462z M437.445,232.924l-191.667-51.357
	c-3.914-1.048-8.056-0.305-11.363,2.038c-3.306,2.344-5.378,6.005-5.686,10.045L211.87,415.226
	c-0.714,9.386,5.367,17.967,14.458,20.402l100.929,27.044c1.684,0.452,3.386,0.669,5.065,0.669c7.38,0,14.338-4.194,17.657-11.107
	l3.214-6.693c1.793-3.733,0.22-8.214-3.515-10.007c-3.736-1.794-8.215-0.22-10.007,3.515l-3.214,6.693
	c-0.953,1.985-3.186,3.015-5.317,2.442l-100.93-27.044c-2.127-0.57-3.55-2.578-3.383-4.774L243.555,196.5l188.347,50.468
	l-77.208,160.796c-1.793,3.733-0.22,8.214,3.515,10.007c3.732,1.793,8.214,0.22,10.007-3.515l77.952-162.343
	c1.755-3.654,1.791-7.862,0.099-11.545C444.575,236.686,441.359,233.972,437.445,232.924z M113.943,149.021
	c13.691,0,24.832-12.546,24.832-27.967s-11.139-27.967-24.832-27.967s-24.832,12.546-24.832,27.967S100.252,149.021,113.943,149.021
	z M113.943,108.088c5.329,0,9.831,5.938,9.831,12.966c0,7.028-4.502,12.966-9.831,12.966c-5.329,0-9.831-5.938-9.831-12.966
	C104.112,114.026,108.614,108.088,113.943,108.088z"/>
<g>
</g>
<g>
</g>
<g>
</g>
<g>
</g>
<g>
</g>
<g>
</g>
<g>
</g>
<g>
</g>
<g>
</g>
<g>
</g>
<g>
</g>
<g>
</g>
<g>
</g>
<g>
</g>
<g>
</g>
</svg>
