<svg id="fart" enable-background="new 0 0 300 300" height="512" viewBox="0 0 300 300" width="512" xmlns="http://www.w3.org/2000/svg"><g><circle cx="178" cy="158" fill="#efefd2" r="86"/><g fill="#4c241d"><path d="m228 208h-12c-2.209 0-4-1.789-4-4s1.791-4 4-4h12c2.209 0 4 1.789 4 4s-1.791 4-4 4z"/><path d="m200 208h-12c-2.209 0-4-1.789-4-4s1.791-4 4-4h12c2.209 0 4 1.789 4 4s-1.791 4-4 4z"/><path d="m208 200c-2.209 0-4-1.789-4-4v-12c0-2.211 1.791-4 4-4s4 1.789 4 4v12c0 2.211-1.791 4-4 4z"/><path d="m208 228c-2.209 0-4-1.789-4-4v-12c0-2.211 1.791-4 4-4s4 1.789 4 4v12c0 2.211-1.791 4-4 4z"/><circle cx="192" cy="80" r="4"/><circle cx="224" cy="128" r="4"/><path d="m254 176c-7.719 0-14-6.281-14-14s6.281-14 14-14 14 6.281 14 14-6.281 14-14 14zm0-20c-3.309 0-6 2.691-6 6s2.691 6 6 6 6-2.691 6-6-2.691-6-6-6z"/></g><g><path d="m183.315 126.665c1.92-10.349-.234-21.054-5.996-29.795l-16.394-24.87-16.925-.016v66.728l32 17.288z" fill="#fc8c29"/><path d="m176 160c-.656 0-1.309-.16-1.902-.48l-32-17.289c-1.291-.699-2.098-2.051-2.098-3.52v-66.727c0-1.062.422-2.078 1.174-2.828.75-.75 1.766-1.172 2.826-1.172h.004l16.924.016c1.344 0 2.596.676 3.336 1.797l16.395 24.871c6.371 9.66 8.713 21.285 6.59 32.727-.016.078-.033.16-.053.238l-7.314 29.336c-.299 1.199-1.135 2.191-2.266 2.691-.516.227-1.067.34-1.616.34zm-28-23.676 25.365 13.707 6.037-24.215c1.707-9.359-.217-18.852-5.424-26.742l-15.211-23.078-10.767-.008zm35.314-9.66h.039z" fill="#4c241d"/></g><g><path d="m173.978 272-14.989-9.987 17.011-106.013-32-16v132z" fill="#9dc1e4"/><path d="m173.979 276h-29.979c-2.209 0-4-1.789-4-4v-132c0-1.387.719-2.672 1.896-3.402 1.18-.73 2.654-.793 3.893-.176l32 16c1.562.781 2.438 2.488 2.16 4.211l-16.604 103.477 12.852 8.562c1.467.977 2.121 2.801 1.609 4.488-.509 1.688-2.064 2.84-3.827 2.84zm-25.979-8h12.762l-3.992-2.66c-1.303-.867-1.979-2.418-1.73-3.961l16.547-103.113-23.587-11.793z" fill="#4c241d"/></g><g><path d="m143.553 176 12.354-89.297c.708-5.118-2.692-9.866-7.594-10.606-5.322-.802-10.119 3.43-10.248 9.042l-2.065 89.722z" fill="#ffe8dc"/><path d="m143.553 180c-.199 0-.398-.016-.598-.043l-7.553-1.141c-1.99-.301-3.447-2.035-3.4-4.051l2.064-89.719c.088-3.906 1.826-7.562 4.764-10.035 2.809-2.367 6.475-3.414 10.078-2.871 7.051 1.062 11.967 7.84 10.961 15.113l-12.354 89.293c-.146 1.062-.711 2.016-1.568 2.656-.695.521-1.537.798-2.394.798zm-3.473-8.57.064.012 11.799-85.285c.41-2.953-1.486-5.691-4.227-6.102-1.354-.203-2.67.18-3.738 1.078-1.18.992-1.879 2.488-1.916 4.102z" fill="#4c241d"/></g><g><path d="m154.901 72h17.099v-28c0-8.837-7.163-16-16-16-8.837 0-16 7.163-16 16v13.099c0 8.23 6.671 14.901 14.901 14.901z" fill="#ffe8dc"/><path d="m172 76h-17.1c-10.422 0-18.9-8.48-18.9-18.902v-13.098c0-11.027 8.973-20 20-20s20 8.973 20 20v28c0 2.211-1.791 4-4 4zm-16-44c-6.617 0-12 5.383-12 12v13.098c0 6.011 4.891 10.902 10.9 10.902h13.1v-24c0-6.617-5.383-12-12-12z" fill="#4c241d"/></g><path d="m124 152h-16c-2.209 0-4-1.789-4-4s1.791-4 4-4h16c2.209 0 4 1.789 4 4s-1.791 4-4 4z" fill="#4c241d"/><path d="m96 152h-30c-7.719 0-14-6.281-14-14s6.281-14 14-14h10c2.209 0 4 1.789 4 4s-1.791 4-4 4h-10c-3.309 0-6 2.691-6 6s2.691 6 6 6h30c2.209 0 4 1.789 4 4s-1.791 4-4 4z" fill="#4c241d"/><path d="m104 196h-10c-7.719 0-14-6.281-14-14s6.281-14 14-14h30c2.209 0 4 1.789 4 4s-1.791 4-4 4h-30c-3.309 0-6 2.691-6 6s2.691 6 6 6h10c2.209 0 4 1.789 4 4s-1.791 4-4 4z" fill="#4c241d"/><path d="m124 164h-60c-2.209 0-4-1.789-4-4s1.791-4 4-4h60c2.209 0 4 1.789 4 4s-1.791 4-4 4z" fill="#4c241d"/><path d="m48 180h-4c-6.617 0-12-5.383-12-12s5.383-12 12-12h8c2.209 0 4 1.789 4 4s-1.791 4-4 4h-8c-2.205 0-4 1.793-4 4s1.795 4 4 4h4c2.209 0 4 1.789 4 4s-1.791 4-4 4z" fill="#4c241d"/></g></svg>