<?xml version="1.0" encoding="iso-8859-1"?>
<!-- Generator: Adobe Illustrator 19.0.0, SVG Export Plug-In . SVG Version: 6.00 Build 0)  -->
<svg version="1.1" id="Capa_1" xmlns="http://www.w3.org/2000/svg" xmlns:xlink="http://www.w3.org/1999/xlink" x="0px" y="0px"
	 viewBox="0 0 512 512" style="enable-background:new 0 0 512 512;" xml:space="preserve">
<path style="fill:#6D2C93;" d="M333.385,263.593l-18.61-19.853l-19.581,20.898l-19.592-20.898l-19.592,20.898l-19.592-20.898
	l-19.592,20.898l-19.602-20.898l-18.61,19.853h-0.982V186.27c0-43.28,35.088-78.367,78.367-78.367
	c21.64,0,41.232,8.777,55.411,22.956c14.19,14.179,22.956,33.771,22.956,55.411v77.322H333.385z"/>
<path style="fill:#50206C;" d="M311.411,130.859C297.232,116.68,277.64,107.903,256,107.903c-16.77,0-32.297,5.285-45.042,14.257
	c7.608-2.462,15.717-3.808,24.144-3.808c21.64,0,41.232,8.777,55.411,22.956c14.19,14.179,22.956,33.771,22.956,55.411v48.414
	l1.306-1.394l18.61,19.853h0.982V186.27C334.367,164.63,325.601,145.039,311.411,130.859z"/>
<g>
	<rect x="216.816" y="165.377" style="fill:#FFFFFF;" width="26.122" height="41.796"/>
	<rect x="269.061" y="165.377" style="fill:#FFFFFF;" width="26.122" height="41.796"/>
</g>
<path style="fill:#FF6243;" d="M163.589,399.429l-18.61-19.853l-19.581,20.898l-19.592-20.898l-19.592,20.898l-19.592-20.898
	l-19.592,20.898l-19.602-20.898l-18.61,19.853H7.837v-77.322c0-43.28,35.088-78.367,78.367-78.367
	c21.64,0,41.232,8.777,55.411,22.956c14.19,14.179,22.956,33.771,22.956,55.411v77.322H163.589z"/>
<path style="fill:#E2472D;" d="M141.615,267.741c-14.179-14.179-33.771-22.956-55.411-22.956c-16.77,0-32.297,5.285-45.042,14.257
	c7.608-2.462,15.717-3.808,24.144-3.808c21.64,0,41.232,8.777,55.411,22.956c14.19,14.179,22.956,33.771,22.956,55.411v48.414
	l1.306-1.394l18.61,19.853h0.982v-77.322C164.571,301.512,155.805,281.92,141.615,267.741z"/>
<g>
	<rect x="47.02" y="301.213" style="fill:#FFFFFF;" width="26.122" height="41.796"/>
	<rect x="99.265" y="301.213" style="fill:#FFFFFF;" width="26.122" height="41.796"/>
</g>
<path style="fill:#FFDA44;" d="M503.181,399.429l-18.61-19.853l-19.581,20.898l-19.592-20.898l-19.592,20.898l-19.592-20.898
	l-19.592,20.898l-19.602-20.898l-18.61,19.853h-0.982v-77.322c0-43.28,35.088-78.367,78.367-78.367
	c21.64,0,41.232,8.777,55.411,22.956c14.19,14.179,22.956,33.771,22.956,55.411v77.322H503.181z"/>
<path style="fill:#EEBF00;" d="M481.207,267.741c-14.179-14.179-33.771-22.956-55.411-22.956c-16.77,0-32.297,5.285-45.042,14.257
	c7.608-2.462,15.717-3.808,24.144-3.808c21.64,0,41.232,8.777,55.411,22.956c14.19,14.179,22.956,33.771,22.956,55.411v48.414
	l1.306-1.394l18.61,19.853h0.982v-77.322C504.163,301.512,495.397,281.92,481.207,267.741z"/>
<g>
	<rect x="386.612" y="301.213" style="fill:#FFFFFF;" width="26.122" height="41.796"/>
	<rect x="438.857" y="301.213" style="fill:#FFFFFF;" width="26.122" height="41.796"/>
</g>
<path d="M342.204,186.27c0-23.034-8.968-44.682-25.251-60.952c-16.285-16.284-37.932-25.252-60.953-25.252
	c-47.533,0-86.204,38.671-86.204,86.204v85.159h12.214l15.217-16.232l19.601,20.898l19.591-20.897l19.592,20.898l19.592-20.898
	l19.593,20.899l19.581-20.897l15.213,16.229h12.215V186.27z M326.531,244.822l-11.756-12.542l-19.581,20.899l-19.591-20.897
	L256.01,253.18l-19.592-20.898l-19.594,20.899l-19.602-20.898l-11.753,12.539v-58.551c0-38.891,31.64-70.531,70.531-70.531
	c18.835,0,36.546,7.337,49.871,20.663c13.322,13.312,20.66,31.022,20.66,49.868L326.531,244.822L326.531,244.822z"/>
<path d="M208.98,215.005h41.796v-57.469H208.98V215.005z M224.653,173.209h10.449v26.122h-10.449V173.209z"/>
<path d="M261.224,215.005h41.796v-57.469h-41.796V215.005z M276.898,173.209h10.449v26.122h-10.449V173.209z"/>
<path d="M86.204,235.903C38.671,235.903,0,274.574,0,322.107v85.159h12.214l15.217-16.233l19.601,20.898l19.591-20.897
	l19.592,20.898l19.592-20.898l19.593,20.899l19.581-20.897l15.213,16.229h12.215v-85.159c0-23.034-8.969-44.681-25.252-60.952
	C130.872,244.871,109.226,235.903,86.204,235.903z M156.735,380.659l-11.756-12.542l-19.582,20.898l-19.59-20.897l-19.592,20.898
	l-19.592-20.898L47.03,389.017l-19.602-20.898l-11.753,12.539v-58.551c0-38.891,31.64-70.531,70.531-70.531
	c18.835,0,36.546,7.337,49.871,20.663c13.322,13.312,20.66,31.022,20.66,49.868v58.552H156.735z"/>
<path d="M39.184,350.842H80.98v-57.469H39.184V350.842z M54.857,309.046h10.449v26.122H54.857V309.046z"/>
<path d="M91.429,350.842h41.796v-57.469H91.429V350.842z M107.102,309.046h10.449v26.122h-10.449V309.046z"/>
<path d="M486.749,261.155c-16.285-16.285-37.932-25.252-60.953-25.252c-47.532,0-86.204,38.671-86.204,86.204v85.159h12.215
	l15.216-16.233l19.601,20.898l19.591-20.897l19.592,20.898l19.592-20.898l19.593,20.899l19.581-20.897l15.213,16.229H512v-85.159
	C512,299.073,503.032,277.426,486.749,261.155z M496.327,380.659l-11.756-12.542l-19.581,20.898l-19.591-20.897l-19.592,20.898
	l-19.592-20.898l-19.593,20.899l-19.603-20.898l-11.753,12.539v-58.551c0-38.891,31.639-70.531,70.531-70.531
	c18.835,0,36.546,7.337,49.871,20.663c13.322,13.312,20.66,31.022,20.66,49.868L496.327,380.659L496.327,380.659z"/>
<path d="M378.775,350.842h41.796v-57.469h-41.796V350.842z M394.449,309.046h10.449v26.122h-10.449V309.046z"/>
<path d="M431.02,350.842h41.796v-57.469H431.02V350.842z M446.694,309.046h10.449v26.122h-10.449V309.046z"/>
<g>
</g>
<g>
</g>
<g>
</g>
<g>
</g>
<g>
</g>
<g>
</g>
<g>
</g>
<g>
</g>
<g>
</g>
<g>
</g>
<g>
</g>
<g>
</g>
<g>
</g>
<g>
</g>
<g>
</g>
</svg>
