<svg id="Capa_1" enable-background="new 0 0 512.012 512.012" height="512" viewBox="0 0 512.012 512.012" width="512" xmlns="http://www.w3.org/2000/svg"><g><g><path d="m38.166 190.791h435.937v277h-435.937z" fill="#fff5f5"/><path d="m38.166 190.791h44v277h-44z" fill="#eee1dd"/><path d="m503.319 184.54-60.697-94.435c-1.509-2.348-4.11-3.768-6.901-3.768-11.905 0-354.642 0-359.171 0-2.792 0-5.392 1.42-6.901 3.768l-60.698 94.435c-3.509 5.46.411 12.639 6.901 12.639h480.566c6.49 0 10.41-7.179 6.901-12.639z" fill="#e27a66"/><path d="m52.951 184.54 60.698-94.435c1.509-2.348 4.109-3.768 6.901-3.768-26.058 0-43.016 0-44 0-2.792 0-5.392 1.42-6.901 3.768l-60.698 94.435c-3.509 5.46.411 12.639 6.901 12.639h44c-6.49 0-10.41-7.179-6.901-12.639z" fill="#dd544f"/><path d="m81.934 276.434v138.802c0 2.172 1.76 3.932 3.932 3.932h187.541c2.172 0 3.932-1.76 3.932-3.932v-138.802c-58.322 0-137.082 0-195.405 0z" fill="#80b4fb"/><path d="m108.268 415.235v-138.801c-9.116 0-17.942 0-26.333 0v138.802c0 2.172 1.76 3.932 3.932 3.932h26.333c-2.172-.001-3.932-1.761-3.932-3.933z" fill="#61a2f9"/><path d="m316.724 270.979h115.316v195.063h-115.316z" fill="#785252"/><path d="m316.724 270.979h36.333v195.063h-36.333z" fill="#523838"/><path d="m190.85 41.183v89.894c0 4.371-3.543 7.914-7.914 7.914h-59.05c-4.371 0-7.914-3.543-7.914-7.914v-89.894z" fill="#7b6c79"/><path d="m159.972 131.077v-89.894h-44v89.894c0 4.371 3.543 7.914 7.914 7.914h44c-4.371 0-7.914-3.543-7.914-7.914z" fill="#665e68"/><path d="m99.884 40.473v-15.499c0-4.258 3.452-7.71 7.71-7.71h91.634c4.258 0 7.71 3.452 7.71 7.71v15.499c0 4.259-3.452 7.71-7.71 7.71h-91.634c-4.258 0-7.71-3.451-7.71-7.71z" fill="#938493"/><path d="m143.884 40.473v-15.499c0-4.258 3.452-7.71 7.71-7.71h-44c-4.258 0-7.71 3.452-7.71 7.71v15.499c0 4.259 3.452 7.71 7.71 7.71h44c-4.258 0-7.71-3.451-7.71-7.71z" fill="#7b6c79"/><path d="m428.107 242.273c-5.549 0-58.965 0-107.45 0-2.172 0-3.932 1.761-3.932 3.933v33.228h115.316v-33.228c-.002-2.172-1.762-3.933-3.934-3.933z" fill="#9d6b6b"/><path d="m356.99 242.273c-11.873 0-24.256 0-36.333 0-2.172 0-3.933 1.761-3.933 3.933v33.228h36.333v-33.228c0-2.172 1.761-3.933 3.933-3.933z" fill="#785252"/><path d="m496.753 463.137h-481.236c-4.353 0-7.882 3.529-7.882 7.882v15.845c0 4.353 3.529 7.882 7.882 7.882h481.235c4.353 0 7.882-3.529 7.882-7.882v-15.844c.001-4.354-3.528-7.883-7.881-7.883z" fill="#ccf49f"/><path d="m51.635 486.865v-15.845c0-4.353 3.529-7.882 7.882-7.882h-44c-4.353 0-7.882 3.529-7.882 7.882v15.845c0 4.353 3.529 7.882 7.882 7.882h44c-4.353 0-7.882-3.529-7.882-7.882z" fill="#b3e59f"/><path d="m273.407 242.273c-10.056 0-177.336 0-187.541 0-2.172 0-3.932 1.761-3.932 3.933v33.228h195.406v-33.228c0-2.172-1.761-3.933-3.933-3.933z" fill="#9dc6fb"/><path d="m112.2 242.273c-14.175 0-24.081 0-26.333 0-2.172 0-3.932 1.761-3.932 3.933v33.228h26.333v-33.228c0-2.172 1.76-3.933 3.932-3.933z" fill="#80b4fb"/></g><g><path d="m512.006 471.02c0-8.482-6.9-15.383-15.382-15.383h-15.149v-107.979c0-4.143-3.357-7.5-7.5-7.5s-7.5 3.357-7.5 7.5v107.979h-27.065c0-6.76 0-193.597 0-209.432 0-6.304-5.129-11.433-11.433-11.433h-107.45c-6.304 0-11.433 5.129-11.433 11.433v209.432h-263.557v-250.958h420.938v107.98c0 4.143 3.357 7.5 7.5 7.5s7.5-3.357 7.5-7.5v-107.98h14.814c12.404 0 19.919-13.757 13.211-24.194l-60.699-94.435c-2.903-4.517-7.842-7.213-13.21-7.213h-237.371v-23.154h.879c8.387 0 15.21-6.823 15.21-15.21v-15.499c0-8.387-6.823-15.21-15.21-15.21h-28.317c-4.143 0-7.5 3.358-7.5 7.5s3.357 7.5 7.5 7.5h28.317c.116 0 .21.094.21.21v15.499c0 .116-.094.21-.21.21-12.674 0-82.115 0-91.635 0-.116 0-.21-.094-.21-.21v-15.499c0-.116.094-.21.21-.21h28.317c4.143 0 7.5-3.358 7.5-7.5s-3.357-7.5-7.5-7.5h-28.317c-8.387 0-15.21 6.823-15.21 15.21v15.499c0 8.387 6.823 15.21 15.21 15.21h.879v23.154h-31.922c-5.37 0-10.309 2.697-13.21 7.213l-60.699 94.435c-6.707 10.434.803 24.194 13.211 24.194h14.813v250.958h-15.148c-8.482 0-15.383 6.9-15.383 15.383v15.845c0 8.482 6.9 15.383 15.383 15.383h481.235c8.481 0 15.382-6.9 15.382-15.383v-15.845zm-187.912-221.247h100.316v22.161h-100.316zm0 37.161h100.316v168.703h-100.316zm-200.751-231.251h59.877v75.394c0 .229-.186.414-.413.414h-59.051c-.228 0-.413-.186-.413-.414 0-15.355 0-59.897 0-75.394zm-107.62 133.996c-.136 0-.418 0-.618-.367-.2-.366-.048-.603.025-.717h.001l60.699-94.436c.129-.202.35-.322.59-.322h31.923v37.24c0 8.5 6.914 15.414 15.413 15.414h59.051c8.499 0 15.413-6.915 15.413-15.414v-37.24h237.371c.24 0 .462.121.592.324l60.697 94.434c.073.114.226.352.025.718-.199.367-.481.367-.617.367-25.434-.001-457.383-.001-480.565-.001zm481.283 297.186c0 .211-.171.383-.382.383h-481.236c-.211 0-.383-.172-.383-.383v-15.845c0-.211.172-.383.383-.383h481.235c.211 0 .382.172.382.383v15.845z"/><path d="m85.738 234.773c-6.304 0-11.433 5.129-11.433 11.433v169.029c0 6.304 5.129 11.433 11.433 11.433h187.541c6.304 0 11.432-5.129 11.432-11.433 0-7.317 0-161.601 0-169.029 0-6.304-5.129-11.433-11.433-11.433zm37.419 176.894h-33.852v-54.867h33.852zm0-69.867h-33.852v-54.866h33.852zm48.851 69.867h-33.852v-54.867h33.852zm0-69.867h-33.852v-54.866h33.852zm48.852 69.867h-33.852v-54.867h33.852zm0-69.867h-33.852v-54.866h33.852zm48.851 69.867h-33.851v-54.867h33.851zm0-69.867h-33.851v-54.866h33.851zm0-69.866h-180.406v-22.161h180.405v22.161z"/><path d="m410.412 359.274c-1.37-2.192-3.773-3.524-6.359-3.524h-16.29c-4.143 0-7.5 3.357-7.5 7.5s3.357 7.5 7.5 7.5h12.134l2.888 4.62c1.423 2.276 3.866 3.525 6.366 3.525 1.358 0 2.732-.368 3.969-1.142 3.512-2.195 4.58-6.822 2.384-10.335z"/></g></g></svg>